<?xml version="1.0" encoding="UTF-8"?>
<svg id="Layer_1" data-name="Layer 1" xmlns="http://www.w3.org/2000/svg" viewBox="0 0 65.29 60">
  <defs>
    <style>
      .cls-1 {
        fill: #000f9f;
      }

      .cls-1, .cls-2 {
        stroke-width: 0px;
      }

      .cls-2 {
        fill: #fff;
      }
    </style>
  </defs>
  <path class="cls-1" d="M19.31,50.71c-7.81,0-19.31-6.58-19.31-20.71S12.56,9.29,19.31,9.29h26.69c6.75,0,19.31,6.08,19.31,20.71s-11.5,20.71-19.31,20.71h-26.69Z"/>
  <g>
    <path class="cls-2" d="M41.34,28.17c-.51-.51-1.1-.76-1.84-.76h-14.15c-.73,0-1.33.25-1.83.76-.51.51-.76,1.11-.76,1.84s.25,1.32.76,1.83c.51.51,1.1.76,1.83.76h14.15c.73,0,1.33-.25,1.84-.76.51-.51.76-1.11.76-1.84s-.25-1.33-.76-1.83Z"/>
    <path class="cls-2" d="M19.76,17.05h8.65c.73,0,1.33.25,1.84.75.51.51.76,1.11.76,1.84s-.25,1.33-.76,1.83c-.51.51-1.11.76-1.84.76h-7.39c-2.17,0-7.31,1.86-7.31,7.77s5.12,7.77,7.31,7.77h7.39c.73,0,1.33.25,1.84.76.51.51.76,1.11.76,1.84s-.25,1.33-.76,1.83c-.51.51-1.11.76-1.84.76h-8.65c-3.14,0-11.6-2.88-11.6-12.95s8.31-12.95,11.6-12.95Z"/>
    <path class="cls-2" d="M45.55,17.05h-8.65c-.73,0-1.33.25-1.84.75-.51.51-.75,1.11-.75,1.84s.24,1.33.75,1.83c.51.51,1.11.76,1.84.76h7.39c2.17,0,7.31,1.86,7.31,7.77s-5.12,7.77-7.31,7.77h-7.39c-.73,0-1.33.25-1.84.76-.51.51-.75,1.11-.75,1.84s.24,1.33.75,1.83c.51.51,1.11.76,1.84.76h8.65c3.14,0,11.6-2.88,11.6-12.95s-8.31-12.95-11.6-12.95Z"/>
  </g>
</svg>